<svg width="1200" height="1200" viewBox="0 0 1200 1200" fill="none" xmlns="http://www.w3.org/2000/svg">
<g clip-path="url(#clip0_12_351)">
<rect width="1200" height="1200" fill="transparent"/>
<path d="M351.711 604.896C353.574 606.884 355.474 608.868 355.469 610.848C355.326 672.029 304.002 733.404 244.062 745.04C190.156 755.504 144.161 741.644 106.122 701.871C105.305 701.018 104.361 700.286 103.077 699.14C94.8104 704.79 86.5556 710.432 77.5203 716.607C74.6015 682.418 71.7871 649.452 68.8325 614.844C100.008 629.482 130.035 643.58 161.346 658.281C153.09 664.07 145.654 669.284 138.222 674.494C156.962 699.87 201.059 713.525 235.188 704.834C281.645 693.004 307.835 660.504 315.236 604.89C327.037 604.89 338.948 604.89 351.711 604.896Z" fill="#1E1E1E"/>
<path d="M271.731 555.912C268.709 554.435 266.3 553.251 262.677 551.471C270.661 545.842 278.083 540.609 285.492 535.385C269.34 510.179 225.357 496.401 188.36 504.804C143.377 515.021 115.849 549.335 108.644 604.505C95.6213 604.505 82.5347 604.505 69.3998 604.505C60.3209 568.528 94.9216 506.365 138.058 481.279C193.533 449.018 267.73 453.224 320.823 510.621C328.923 505.066 337.136 499.433 346.314 493.138C349.231 527.335 352.04 560.257 354.995 594.896C326.575 581.592 299.459 568.899 271.731 555.912Z" fill="#1E1E1E"/>
<path d="M831.85 675.43C831.85 691.77 831.85 707.259 831.85 723.12C818.929 723.12 806.821 723.12 793.993 723.12C793.993 671.052 793.993 619.395 793.993 567.11C785.929 567.11 778.557 567.11 769.187 567.11C774.858 556.53 779.706 547.153 784.99 538.029C785.703 536.797 788.604 536.386 790.502 536.36C801.565 536.209 812.631 536.286 824.383 536.286C825.584 540.478 826.763 544.591 827.354 546.651C838.014 542.717 848.095 536.816 858.736 535.523C881.07 532.811 899.546 545.544 907.605 566.93C914.338 584.798 914.997 603.236 910.267 621.621C902.948 650.073 880.94 665.843 847.978 666.905C842.929 667.067 837.869 666.927 832.224 666.927C832.108 669.308 831.979 671.943 831.85 675.43ZM831.838 623.537C831.838 626.756 831.838 629.976 831.838 633.254C835.685 633.718 838.619 634.217 841.573 634.404C857.028 635.384 869.206 628.649 871.961 615.158C873.867 605.825 873.764 595.49 871.915 586.125C869.373 573.252 860.089 567.587 848.452 569.012C838.526 570.227 832.249 578.403 831.9 591.27C831.624 601.439 831.84 611.621 831.838 623.537Z" fill="#1E1E1E"/>
<path d="M677.928 540.287C694.341 533.488 710.599 533.088 726.918 537.033C742.636 540.833 754.559 550.051 760.632 565.249C770.756 590.584 770.907 616.094 758.237 640.581C754.834 647.158 749.038 653.551 742.732 657.38C721.241 670.43 698.089 670.6 675.819 660.156C655.224 650.498 648.326 631.211 647.162 609.894C646.629 600.137 647.194 590.135 648.761 580.488C651.645 562.728 660.891 548.92 677.928 540.287ZM728.111 619.849C728.575 608.631 730.118 597.324 729.213 586.217C728.223 574.083 719.779 567.441 708.247 567.027C696.279 566.597 686.946 572.857 685.032 584.834C683.507 594.383 683.471 604.432 684.53 614.066C685.852 626.107 692.135 632.168 701.978 633.844C714.154 635.917 721.454 632.353 728.111 619.849Z" fill="#1E1E1E"/>
<path d="M532.102 549.284C559.628 526.879 604.427 530.433 622.802 555.992C639.175 578.767 639.698 624.04 622.168 645.838C615.981 653.532 606.413 659.767 597.113 663.407C582.377 669.176 566.499 668.233 551.25 663.698C539.035 660.065 529.712 652.465 523.142 641.407C509.861 619.056 509.217 570.431 532.102 549.284ZM550.239 597.238C551.017 604.329 551.03 611.612 552.748 618.467C555.428 629.16 563.606 634.582 574.674 634.452C585.77 634.322 594.512 628.707 595.953 617.797C597.45 606.466 597.355 594.638 595.901 583.29C594.607 573.185 586.259 567.598 576.217 567.071C564.95 566.48 556.955 571.352 553.337 581.718C551.784 586.167 551.332 591 550.239 597.238Z" fill="#1E1E1E"/>
<path d="M1130.69 535.649C1139.83 535.649 1148.11 535.649 1157.54 535.649C1152.05 550.307 1146.96 563.89 1141.87 577.477C1131.63 604.829 1121.28 632.138 1111.28 659.579C1109.57 664.253 1107.48 666.129 1102.37 665.857C1091.95 665.303 1079 669.124 1071.74 664.237C1064.64 659.459 1063.09 646.174 1059.51 636.474C1048.16 605.706 1036.99 574.868 1025.76 544.056C1024.87 541.615 1024 539.165 1022.74 535.656C1036.5 535.656 1049.26 535.377 1061.99 535.947C1063.97 536.036 1066.74 539.702 1067.51 542.216C1074.38 564.437 1080.86 586.774 1087.5 609.066C1088.16 611.288 1089.05 613.442 1090.8 618.325C1099.31 589.245 1107.11 562.594 1114.99 535.649C1120.28 535.649 1125.05 535.649 1130.69 535.649Z" fill="#1E1E1E"/>
<path d="M929.653 640.272C918.641 618.237 917.829 595.899 925.249 573.586C935.103 543.955 966.264 529.136 999.73 537.372C1006.32 538.994 1012.69 541.543 1019.85 543.893C1014.08 553.356 1008.86 561.927 1003.54 570.652C987.812 566.7 972.152 562.989 961.648 579.764C954.23 591.609 955.079 617.416 963.955 625.765C978.967 639.885 995.713 635.436 1012.6 627.548C1017.64 635.373 1022.61 643.084 1027.56 650.759C1007.47 673.104 948.974 675.438 929.653 640.272Z" fill="#1E1E1E"/>
<path d="M483.14 595.903C483.142 603.68 483.022 610.562 483.17 617.439C483.478 631.807 486.392 634.439 501.008 633.873C502.781 633.805 504.55 633.648 507.405 633.462C508.123 643.426 508.819 653.079 509.511 662.673C482.845 673.275 446.145 665.629 445.785 627.423C445.345 580.781 445.68 534.131 445.68 486.867C457.932 486.867 470.003 486.867 483.14 486.867C483.14 522.851 483.14 558.928 483.14 595.903Z" fill="#1E1E1E"/>
</g>
<defs>
<clipPath id="clip0_12_351">
<rect width="1200" height="1200" fill="transparent"/>
</clipPath>
</defs>
</svg>
